<svg id="SvgjsSvg1001" width="288" height="288" xmlns="http://www.w3.org/2000/svg" version="1.1" xmlns:xlink="http://www.w3.org/1999/xlink" xmlns:svgjs="http://svgjs.com/svgjs"><defs id="SvgjsDefs1002"></defs><g id="SvgjsG1008" transform="matrix(0.9167,0,0,0.9167,11.969594554138183,11.978888940930375)"><svg xmlns="http://www.w3.org/2000/svg" width="288" height="288" version="1.0" viewBox="0 0 512 512"><g transform="matrix(.1 0 0 -.1 0 512)" fill="#e02d1d" class="color000 svgShape"><path d="M2370 5074 c-19 -2 -73 -9 -120 -14 -243 -30 -504 -107 -733 -218-264 -127 -459 -264 -661 -461 -229 -224 -371 -420 -511 -706 -126 -256 -198
-484 -242 -772 -24 -157 -24 -567 0 -723 89 -578 341 -1069 753 -1470 284
-276 599 -467 974 -590 195 -64 251 -75 305 -60 164 46 211 269 80 378 -27 22
-68 37 -163 62 -160 41 -277 86 -417 158 -612 319 -1025 919 -1116 1622 -18
139 -15 421 6 565 65 451 264 858 580 1184 336 347 766 559 1237 610 857 94
1681 -374 2062 -1169 129 -269 188 -500 205 -798 33 -568 -146 -1102 -513
-1529 -276 -321 -629 -541 -1034 -643 -62 -16 -128 -37 -145 -47 -80 -47 -118
-165 -83 -257 29 -76 124 -146 198 -146 32 0 265 72 378 117 774 307 1355 969
1550 1765 56 228 65 317 64 623 -1 256 -3 292 -27 425 -165 918 -778 1652
-1643 1965 -112 41 -305 89 -444 110 -100 15 -465 28 -540 19z" fill="#e02d1d" class="color000 svgShape"></path><path d="M2340 4170 c-399 -85 -713 -387 -827 -796 l-28 -99 0 -735 0 -735 27
-100 c35 -126 109 -278 186 -381 307 -412 847 -553 1301 -338 159 75 310 189
358 271 76 130 -11 303 -160 320 -65 8 -109 -11 -195 -84 -147 -123 -306 -179
-482 -170 -319 17 -576 263 -621 595 -6 48 -9 299 -7 677 4 666 3 646 74 791
81 165 237 295 420 350 43 13 91 18 174 18 99 -1 127 -5 199 -29 92 -32 182
-85 254 -152 58 -54 101 -73 165 -73 67 0 129 34 168 92 65 96 50 203 -39 293
-144 144 -350 250 -565 291 -103 20 -297 17 -402 -6z" fill="#e02d1d" class="color000 svgShape"></path></g></svg></g></svg>